<svg width="30" height="30" viewBox="0 0 30 30" fill="none" xmlns="http://www.w3.org/2000/svg">
<rect width="30" height="30" rx="15" fill="url(#paint0_linear)"/>
<path d="M15 15H14.4667C14.4667 15.1415 14.5228 15.2771 14.6229 15.3771L15 15ZM15 21.9333C11.1708 21.9333 8.06666 18.8292 8.06666 15H6.99999C6.99999 19.4183 10.5817 23 15 23V21.9333ZM21.9333 15C21.9333 18.8292 18.8292 21.9333 15 21.9333V23C19.4183 23 23 19.4183 23 15H21.9333ZM15 8.06667C18.8292 8.06667 21.9333 11.1708 21.9333 15H23C23 10.5817 19.4183 7.00001 15 7.00001V8.06667ZM15 7.00001C10.5817 7.00001 6.99999 10.5817 6.99999 15H8.06666C8.06666 11.1708 11.1708 8.06667 15 8.06667V7.00001ZM14.4667 10.2V15H15.5333V10.2H14.4667ZM14.6229 15.3771L17.8229 18.5771L18.5771 17.8229L15.3771 14.6229L14.6229 15.3771Z" fill="white"/>
<defs>
<linearGradient id="paint0_linear" x1="15" y1="0" x2="15" y2="30" gradientUnits="userSpaceOnUse">
<stop stop-color="#FFA992"/>
<stop offset="1" stop-color="#FD0D92"/>
</linearGradient>
</defs>
</svg>
