<svg width="60" height="60" viewBox="0 0 60 60" fill="none" xmlns="http://www.w3.org/2000/svg">
<rect width="60" height="60" rx="30" fill="white" fill-opacity="0.05"/>
<path d="M15.186 29.7823C16.1301 29.7503 17.0779 29.7739 18.0234 29.7739V29.7799C18.8743 29.7799 19.7289 29.8224 20.5753 29.7623C21.0025 29.7316 21.7243 30.0927 21.7449 29.2099C21.7591 28.5643 21.5848 27.9092 20.8473 27.8219C18.8778 27.5895 16.8916 27.5693 14.9235 27.8396C14.4485 27.9045 13.9005 28.2905 14.0702 28.9242C14.2015 29.4211 14.5379 29.8035 15.186 29.7823Z" fill="url(#paint0_linear)"/>
<path d="M15.6289 25.7802C17.1402 25.7742 18.6655 25.6574 20.16 25.8155C21.9959 26.0114 23.3397 25.4002 24.5453 23.6818C21.418 23.6818 18.5079 23.6959 15.5981 23.6723C14.8079 23.6654 14.063 23.7915 14.0952 24.685C14.125 25.4946 14.8294 25.7825 15.6289 25.7802Z" fill="url(#paint1_linear)"/>
<path d="M24.9532 34.1302C25.3853 34.1267 26.0169 34.0618 25.4473 33.474C24.7673 32.7718 24.1571 31.9538 22.9026 32.0023C20.4986 32.0967 18.0889 32.0531 15.6814 32.014C14.8244 31.9998 14.0404 32.1935 14.0726 33.094C14.1034 33.9626 14.9079 34.1726 15.7494 34.1538C17.2116 34.1208 18.676 34.1444 20.1394 34.1444V34.135C21.7448 34.135 23.3493 34.1433 24.9532 34.1302Z" fill="url(#paint2_linear)"/>
<path d="M34.2301 39.2537C33.1249 40.061 31.5707 39.6042 30.3055 40.3171C29.9166 40.5367 29.5929 40.8128 29.3841 41.1267C28.2872 42.7733 27.2787 44.4762 26.1875 46.1273C25.5441 47.1023 25.7914 47.9579 26.6028 48.5563C27.4696 49.1936 28.5235 49.183 29.2195 48.2541C31.1816 45.64 33.0806 42.9796 34.9857 40.3254C35.5143 39.5889 35.0487 39.3515 34.2301 39.2537Z" fill="url(#paint3_linear)"/>
<path d="M45.8173 25.1605C45.1105 23.5612 43.75 24.319 42.6124 24.2541C41.5408 24.1927 40.4413 25.3988 39.5332 24.6034C38.7488 23.9165 38.2905 22.7718 37.9322 21.7473C37.4694 20.4243 36.395 19.4919 35.5404 18.1122C38.5687 19.2665 40.3913 18.1914 41.2758 16.7715C42.294 15.1369 42.0143 12.9925 40.6325 11.732C39.2359 10.4584 37.1303 10.2662 35.5799 11.2741C33.5972 12.5617 33.3165 14.2093 34.657 17.475C32.5039 16.807 30.7207 15.7955 28.8253 15.0555C28.0697 14.7606 27.3522 14.0241 26.4737 14.3793C24.1488 15.3199 21.8331 16.2925 19.5727 17.3723C18.1781 18.038 17.8813 18.9892 18.4685 20.049C18.9469 20.9143 20.1549 21.1915 21.3473 20.6769C22.368 20.2367 23.3966 19.8047 24.3757 19.2831C26.0153 18.4096 27.5016 18.3955 29.1022 19.4978C30.1453 20.2166 29.995 20.6532 29.2252 21.3767C27.4811 23.0149 25.6194 24.541 24.163 26.4553C23.0935 27.8608 23.1439 29.3125 24.4256 30.5236C26.0036 32.0154 27.6554 33.434 29.2574 34.9023C29.7538 35.3554 30.1884 35.8123 29.0222 36.027C27.4598 36.315 25.9237 36.7293 24.366 37.0445C23.2273 37.2735 22.2939 38.3203 22.4897 39.2397C22.72 40.3231 24.0771 41.0183 25.2445 40.7457C28.3286 40.0245 31.413 39.3129 34.5138 38.6721C36.1037 38.3439 36.8486 36.7754 35.8913 35.5103C35.001 34.3358 34.0438 33.2111 33.1842 32.0167C31.1669 29.2138 31.1838 29.2019 33.725 26.7494C35.1539 25.371 35.1416 25.378 36.2277 27.172C36.7007 27.9509 37.1039 28.8998 38.2691 28.8078C40.5679 28.6273 42.7928 28.0442 45.0055 27.4575C45.8436 27.2353 46.1779 25.9772 45.8173 25.1605Z" fill="url(#paint4_linear)"/>
<defs>
<linearGradient id="paint0_linear" x1="17.8922" y1="27.6422" x2="17.8922" y2="29.81" gradientUnits="userSpaceOnUse">
<stop stop-color="#7CDBFA"/>
<stop offset="1" stop-color="#5AC9ED"/>
</linearGradient>
<linearGradient id="paint1_linear" x1="19.3198" y1="23.6721" x2="19.3198" y2="25.8507" gradientUnits="userSpaceOnUse">
<stop stop-color="#7CDBFA"/>
<stop offset="1" stop-color="#5AC9ED"/>
</linearGradient>
<linearGradient id="paint2_linear" x1="19.8728" y1="32.0002" x2="19.8728" y2="34.1549" gradientUnits="userSpaceOnUse">
<stop stop-color="#7CDBFA"/>
<stop offset="1" stop-color="#5AC9ED"/>
</linearGradient>
<linearGradient id="paint3_linear" x1="30.5161" y1="39.2537" x2="30.5161" y2="48.9984" gradientUnits="userSpaceOnUse">
<stop stop-color="#7CDBFA"/>
<stop offset="1" stop-color="#5AC9ED"/>
</linearGradient>
<linearGradient id="paint4_linear" x1="32.0723" y1="10.6302" x2="32.0723" y2="40.805" gradientUnits="userSpaceOnUse">
<stop stop-color="#7CDBFA"/>
<stop offset="1" stop-color="#5AC9ED"/>
</linearGradient>
</defs>
</svg>
