<svg width="414" height="290" viewBox="0 0 414 290" fill="none" xmlns="http://www.w3.org/2000/svg">
<g clip-path="url(#clip0)">
<rect width="414" height="290" fill="url(#paint0_linear)" fill-opacity="0.1"/>
<path d="M30 18C30 8.05888 38.0589 0 48 0H148V36H48C38.0589 36 30 27.9411 30 18Z" fill="url(#paint1_linear)"/>
<path d="M74.4457 23H76.6177L77.5897 18.608C77.7337 17.912 77.8537 17.228 77.9737 16.544H78.0217C78.1297 17.228 78.2617 17.912 78.4057 18.608L79.4017 23H81.6097L83.2537 14.108H81.5737L80.8657 18.452C80.7337 19.376 80.6017 20.324 80.4697 21.284H80.4097C80.2177 20.324 80.0377 19.364 79.8457 18.452L78.8257 14.108H77.3017L76.2697 18.452C76.0777 19.376 75.8857 20.324 75.7057 21.284H75.6577C75.5257 20.324 75.3817 19.388 75.2497 18.452L74.5417 14.108H72.7417L74.4457 23ZM84.5861 23H90.1661V21.512H86.3621V19.136H89.4821V17.648H86.3621V15.596H90.0341V14.108H84.5861V23ZM91.969 23H97.549V21.512H93.745V19.136H96.865V17.648H93.745V15.596H97.417V14.108H91.969V23ZM99.3518 23H101.128V20.504L102.292 19.004L104.596 23H106.54L103.348 17.612L106.06 14.108H104.104L101.164 17.972H101.128V14.108H99.3518V23Z" fill="#DFDEDF"/>
<rect width="118" height="36" transform="translate(148)" fill="url(#paint2_linear)" fill-opacity="0.1"/>
<path d="M186.069 23H187.665V19.292C187.665 18.452 187.521 17.216 187.437 16.376H187.485L188.193 18.464L189.573 22.196H190.593L191.961 18.464L192.681 16.376H192.741C192.645 17.216 192.513 18.452 192.513 19.292V23H194.133V14.108H192.165L190.689 18.272C190.497 18.824 190.341 19.412 190.149 19.976H190.089C189.909 19.412 189.741 18.824 189.549 18.272L188.037 14.108H186.069V23ZM199.839 23.168C202.191 23.168 203.811 21.404 203.811 18.524C203.811 15.644 202.191 13.952 199.839 13.952C197.487 13.952 195.867 15.632 195.867 18.524C195.867 21.404 197.487 23.168 199.839 23.168ZM199.839 21.632C198.519 21.632 197.679 20.42 197.679 18.524C197.679 16.616 198.519 15.476 199.839 15.476C201.159 15.476 201.999 16.616 201.999 18.524C201.999 20.42 201.159 21.632 199.839 21.632ZM205.545 23H207.225V19.436C207.225 18.416 207.093 17.3 207.009 16.34H207.069L207.969 18.248L210.537 23H212.337V14.108H210.657V17.66C210.657 18.668 210.801 19.844 210.885 20.768H210.825L209.937 18.848L207.357 14.108H205.545V23ZM216.297 23H218.073V15.596H220.593V14.108H213.801V15.596H216.297V23ZM222.033 23H223.809V19.16H227.169V23H228.933V14.108H227.169V17.612H223.809V14.108H222.033V23Z" fill="#EBEBF5" fill-opacity="0.6"/>
<path d="M266 0H366C375.941 0 384 8.05888 384 18C384 27.9411 375.941 36 366 36H266V0Z" fill="url(#paint3_linear)" fill-opacity="0.1"/>
<path d="M304.993 18.368C305.257 17.444 305.521 16.436 305.749 15.464H305.809C306.061 16.424 306.301 17.444 306.577 18.368L306.841 19.34H304.729L304.993 18.368ZM301.921 23H303.721L304.345 20.72H307.225L307.849 23H309.709L306.853 14.108H304.765L301.921 23ZM312.26 23.168C312.68 23.168 312.968 23.096 313.172 23.012L312.956 21.704C312.836 21.728 312.788 21.728 312.716 21.728C312.548 21.728 312.368 21.596 312.368 21.188V13.424H310.604V21.116C310.604 22.364 311.036 23.168 312.26 23.168ZM316.045 23.168C316.465 23.168 316.753 23.096 316.957 23.012L316.741 21.704C316.621 21.728 316.573 21.728 316.501 21.728C316.333 21.728 316.153 21.596 316.153 21.188V13.424H314.389V21.116C314.389 22.364 314.821 23.168 316.045 23.168ZM322.801 23H324.577V15.596H327.097V14.108H320.305V15.596H322.801V23ZM328.537 23H330.313V14.108H328.537V23ZM332.498 23H334.094V19.292C334.094 18.452 333.95 17.216 333.866 16.376H333.914L334.622 18.464L336.002 22.196H337.022L338.39 18.464L339.11 16.376H339.17C339.074 17.216 338.942 18.452 338.942 19.292V23H340.562V14.108H338.594L337.118 18.272C336.926 18.824 336.77 19.412 336.578 19.976H336.518C336.338 19.412 336.17 18.824 335.978 18.272L334.466 14.108H332.498V23ZM342.74 23H348.32V21.512H344.516V19.136H347.636V17.648H344.516V15.596H348.188V14.108H342.74V23Z" fill="#EBEBF5" fill-opacity="0.6"/>
<path d="M40.548 279.182C42.69 279.182 44.034 277.894 44.034 276.27C44.034 274.744 43.11 274.044 41.92 273.526L40.45 272.896C39.652 272.56 38.756 272.182 38.756 271.188C38.756 270.264 39.512 269.676 40.674 269.676C41.626 269.676 42.382 270.054 43.012 270.642L43.698 269.816C42.97 269.06 41.892 268.542 40.674 268.542C38.812 268.542 37.44 269.69 37.44 271.272C37.44 272.77 38.574 273.498 39.526 273.904L41.01 274.548C41.976 274.982 42.718 275.318 42.718 276.368C42.718 277.376 41.906 278.048 40.562 278.048C39.498 278.048 38.462 277.544 37.734 276.774L36.95 277.656C37.846 278.594 39.092 279.182 40.548 279.182ZM48.1455 279.182C49.1955 279.182 49.9515 278.636 50.6655 277.81H50.7075L50.8055 279H51.8695V271.398H50.5955V276.788C49.8675 277.698 49.3215 278.076 48.5375 278.076C47.5295 278.076 47.1095 277.474 47.1095 276.06V271.398H45.8355V276.214C45.8355 278.146 46.5495 279.182 48.1455 279.182ZM54.4374 279H55.7114V273.484C56.4814 272.714 57.0134 272.322 57.7974 272.322C58.8054 272.322 59.2394 272.924 59.2394 274.352V279H60.5134V274.184C60.5134 272.238 59.7854 271.202 58.1894 271.202C57.1534 271.202 56.3694 271.776 55.6414 272.49H55.5994L55.4874 271.398H54.4374V279Z" fill="#EBEBF5" fill-opacity="0.3"/>
<path d="M88.6949 279H89.8709V273.316C89.8709 272.434 89.7729 271.188 89.7169 270.292H89.7729L90.5849 272.63L92.5309 277.964H93.3989L95.3449 272.63L96.1569 270.292H96.2129C96.1429 271.188 96.0449 272.434 96.0449 273.316V279H97.2629V268.724H95.6949L93.7349 274.226C93.4969 274.94 93.2729 275.654 93.0349 276.368H92.9649C92.7129 275.654 92.4749 274.94 92.2369 274.226L90.2629 268.724H88.6949V279ZM102.898 279.182C104.76 279.182 106.426 277.726 106.426 275.206C106.426 272.672 104.76 271.202 102.898 271.202C101.036 271.202 99.3703 272.672 99.3703 275.206C99.3703 277.726 101.036 279.182 102.898 279.182ZM102.898 278.118C101.582 278.118 100.7 276.956 100.7 275.206C100.7 273.456 101.582 272.266 102.898 272.266C104.214 272.266 105.11 273.456 105.11 275.206C105.11 276.956 104.214 278.118 102.898 278.118ZM108.434 279H109.708V273.484C110.478 272.714 111.01 272.322 111.794 272.322C112.802 272.322 113.236 272.924 113.236 274.352V279H114.51V274.184C114.51 272.238 113.782 271.202 112.186 271.202C111.15 271.202 110.366 271.776 109.638 272.49H109.596L109.484 271.398H108.434V279Z" fill="#EBEBF5" fill-opacity="0.3"/>
<path d="M144.812 279H146.114V269.83H149.222V268.724H141.704V269.83H144.812V279ZM152.426 279.182C153.476 279.182 154.232 278.636 154.946 277.81H154.988L155.086 279H156.15V271.398H154.876V276.788C154.148 277.698 153.602 278.076 152.818 278.076C151.81 278.076 151.39 277.474 151.39 276.06V271.398H150.116V276.214C150.116 278.146 150.83 279.182 152.426 279.182ZM161.784 279.182C162.82 279.182 163.632 278.832 164.304 278.398L163.842 277.558C163.282 277.936 162.68 278.16 161.938 278.16C160.496 278.16 159.502 277.124 159.418 275.5H164.542C164.57 275.318 164.598 275.052 164.598 274.772C164.598 272.602 163.506 271.202 161.574 271.202C159.81 271.202 158.144 272.742 158.144 275.206C158.144 277.712 159.768 279.182 161.784 279.182ZM159.404 274.576C159.558 273.092 160.51 272.224 161.588 272.224C162.778 272.224 163.478 273.05 163.478 274.576H159.404ZM168.458 279.182C170.25 279.182 171.23 278.16 171.23 276.928C171.23 275.486 170.012 275.038 168.906 274.618C168.052 274.296 167.268 274.03 167.268 273.302C167.268 272.714 167.716 272.21 168.682 272.21C169.354 272.21 169.886 272.49 170.404 272.882L171.02 272.056C170.432 271.594 169.606 271.202 168.668 271.202C167.016 271.202 166.036 272.154 166.036 273.358C166.036 274.646 167.198 275.164 168.262 275.556C169.102 275.878 169.998 276.214 169.998 276.998C169.998 277.656 169.508 278.188 168.5 278.188C167.59 278.188 166.904 277.824 166.246 277.292L165.616 278.132C166.344 278.734 167.38 279.182 168.458 279.182Z" fill="#EBEBF5" fill-opacity="0.3"/>
<path d="M199.672 279H201.212L202.738 272.812C202.906 272 203.088 271.258 203.256 270.474H203.312C203.48 271.258 203.634 272 203.816 272.812L205.37 279H206.924L209.052 268.724H207.806L206.728 274.324C206.532 275.416 206.336 276.522 206.14 277.642H206.07C205.832 276.522 205.594 275.416 205.342 274.324L203.914 268.724H202.724L201.31 274.324C201.058 275.43 200.806 276.536 200.568 277.642H200.512C200.316 276.536 200.106 275.43 199.91 274.324L198.832 268.724H197.502L199.672 279ZM213.783 279.182C214.819 279.182 215.631 278.832 216.303 278.398L215.841 277.558C215.281 277.936 214.679 278.16 213.937 278.16C212.495 278.16 211.501 277.124 211.417 275.5H216.541C216.569 275.318 216.597 275.052 216.597 274.772C216.597 272.602 215.505 271.202 213.573 271.202C211.809 271.202 210.143 272.742 210.143 275.206C210.143 277.712 211.767 279.182 213.783 279.182ZM211.403 274.576C211.557 273.092 212.509 272.224 213.587 272.224C214.777 272.224 215.477 273.05 215.477 274.576H211.403ZM221.059 279.182C221.969 279.182 222.767 278.692 223.369 278.104H223.411L223.523 279H224.559V267.856H223.299V270.782L223.355 272.098C222.683 271.538 222.109 271.202 221.213 271.202C219.477 271.202 217.923 272.742 217.923 275.206C217.923 277.74 219.155 279.182 221.059 279.182ZM221.339 278.118C219.995 278.118 219.239 277.026 219.239 275.192C219.239 273.456 220.205 272.28 221.437 272.28C222.067 272.28 222.641 272.504 223.299 273.078V277.068C222.655 277.768 222.039 278.118 221.339 278.118Z" fill="#EBEBF5" fill-opacity="0.3"/>
<path d="M254.634 279H255.936V269.83H259.044V268.724H251.526V269.83H254.634V279ZM260.761 279H262.035V273.484C262.805 272.714 263.337 272.322 264.121 272.322C265.129 272.322 265.563 272.924 265.563 274.352V279H266.837V274.184C266.837 272.238 266.109 271.202 264.513 271.202C263.477 271.202 262.693 271.776 261.993 272.476L262.035 270.908V267.856H260.761V279ZM271.477 279.182C272.527 279.182 273.283 278.636 273.997 277.81H274.039L274.137 279H275.201V271.398H273.927V276.788C273.199 277.698 272.653 278.076 271.869 278.076C270.861 278.076 270.441 277.474 270.441 276.06V271.398H269.167V276.214C269.167 278.146 269.881 279.182 271.477 279.182ZM277.768 279H279.042V274.114C279.546 272.812 280.33 272.364 280.96 272.364C281.268 272.364 281.45 272.392 281.702 272.49L281.94 271.37C281.702 271.244 281.464 271.202 281.128 271.202C280.274 271.202 279.504 271.818 278.972 272.784H278.93L278.818 271.398H277.768V279Z" fill="#EBEBF5" fill-opacity="0.3"/>
<path d="M308.553 279H309.855V274.394H313.775V273.302H309.855V269.83H314.475V268.724H308.553V279ZM315.851 279H317.125V274.114C317.629 272.812 318.413 272.364 319.043 272.364C319.351 272.364 319.533 272.392 319.785 272.49L320.023 271.37C319.785 271.244 319.547 271.202 319.211 271.202C318.357 271.202 317.587 271.818 317.055 272.784H317.013L316.901 271.398H315.851V279ZM321.279 279H322.553V271.398H321.279V279ZM321.923 269.83C322.427 269.83 322.777 269.494 322.777 268.976C322.777 268.486 322.427 268.15 321.923 268.15C321.419 268.15 321.069 268.486 321.069 268.976C321.069 269.494 321.419 269.83 321.923 269.83Z" fill="url(#paint4_linear)"/>
<path d="M353.592 279.182C355.734 279.182 357.078 277.894 357.078 276.27C357.078 274.744 356.154 274.044 354.964 273.526L353.494 272.896C352.696 272.56 351.8 272.182 351.8 271.188C351.8 270.264 352.556 269.676 353.718 269.676C354.67 269.676 355.426 270.054 356.056 270.642L356.742 269.816C356.014 269.06 354.936 268.542 353.718 268.542C351.856 268.542 350.484 269.69 350.484 271.272C350.484 272.77 351.618 273.498 352.57 273.904L354.054 274.548C355.02 274.982 355.762 275.318 355.762 276.368C355.762 277.376 354.95 278.048 353.606 278.048C352.542 278.048 351.506 277.544 350.778 276.774L349.994 277.656C350.89 278.594 352.136 279.182 353.592 279.182ZM360.727 279.182C361.665 279.182 362.519 278.692 363.247 278.09H363.289L363.401 279H364.451V274.324C364.451 272.448 363.667 271.202 361.819 271.202C360.601 271.202 359.523 271.748 358.823 272.196L359.327 273.078C359.929 272.672 360.727 272.266 361.609 272.266C362.855 272.266 363.177 273.204 363.177 274.184C359.943 274.548 358.501 275.374 358.501 277.026C358.501 278.398 359.453 279.182 360.727 279.182ZM361.091 278.16C360.335 278.16 359.747 277.81 359.747 276.942C359.747 275.962 360.615 275.332 363.177 275.024V277.152C362.435 277.81 361.833 278.16 361.091 278.16ZM369.069 279.182C369.531 279.182 370.035 279.042 370.469 278.902L370.217 277.95C369.965 278.048 369.615 278.146 369.349 278.146C368.467 278.146 368.173 277.614 368.173 276.676V272.434H370.231V271.398H368.173V269.256H367.109L366.955 271.398L365.765 271.468V272.434H366.899V276.648C366.899 278.16 367.445 279.182 369.069 279.182Z" fill="#EBEBF5" fill-opacity="0.3"/>
<rect x="31" y="102" width="34" height="150" fill="url(#paint5_linear)" fill-opacity="0.1"/>
<rect x="84" y="102" width="34" height="150" fill="url(#paint6_linear)" fill-opacity="0.1"/>
<rect x="137" y="102" width="34" height="150" fill="url(#paint7_linear)" fill-opacity="0.1"/>
<rect x="190" y="102" width="34" height="150" fill="url(#paint8_linear)" fill-opacity="0.1"/>
<rect x="243" y="102" width="34" height="150" fill="url(#paint9_linear)" fill-opacity="0.1"/>
<rect x="296" y="68" width="34" height="184" fill="url(#paint10_linear)"/>
<rect x="349" y="102" width="34" height="150" fill="url(#paint11_linear)" fill-opacity="0.1"/>
<path d="M1 207.571C11.2857 205.08 54.8195 197.609 58.7692 187.648C63.7064 175.195 65.2356 96 90.5385 96C115.841 96 105.028 194.621 122.308 194.621C139.588 194.621 133.094 77.9923 154.077 76C175.06 74.0077 169.8 192 185.846 192C201.892 192 193.547 130.5 217.615 130.5C241.684 130.5 230.87 194.621 249.385 194.621C267.885 194.621 271.154 226 281.154 226C291.154 226 274.923 65 312.923 65.5C350.923 66 316.692 226 344.692 226C372.692 226 354.462 142.5 376.462 142.5C398.462 142.5 394.231 184 408.231 184C419.431 184 412.5 191.333 414 195" stroke="url(#paint12_linear)"/>
<path d="M58.7692 187.648C54.8195 197.609 11.2857 205.08 1 207.571L0 208V252H414V195C412.5 191.333 419.431 184 408.231 184C394.231 184 398.462 142.5 376.462 142.5C354.462 142.5 372.692 226 344.692 226C316.692 226 350.923 66 312.923 65.5C274.923 65 291.154 226 281.154 226C271.154 226 267.885 194.621 249.385 194.621C230.87 194.621 241.684 130.5 217.615 130.5C193.547 130.5 201.892 192 185.846 192C169.8 192 175.06 74.0077 154.077 76C133.094 77.9923 139.588 194.621 122.308 194.621C105.028 194.621 115.841 96 90.5385 96C65.2356 96 63.7064 175.195 58.7692 187.648Z" fill="url(#paint13_linear)"/>
<circle opacity="0.1" cx="314" cy="67" r="25" fill="url(#paint14_linear)"/>
<circle opacity="0.1" cx="314" cy="67" r="16.6667" fill="url(#paint15_linear)"/>
<circle cx="314" cy="67" r="8.33333" fill="url(#paint16_linear)"/>
<circle cx="314" cy="67" r="10.8333" stroke="url(#paint17_linear)" stroke-width="1.66667"/>
<g style="mix-blend-mode:screen" opacity="0.7">
<circle opacity="0.1" cx="314" cy="67" r="25" fill="url(#paint18_linear)"/>
<circle opacity="0.1" cx="314" cy="67" r="16.6667" fill="url(#paint19_linear)"/>
<circle cx="314" cy="67" r="8.33333" fill="url(#paint20_linear)"/>
<circle cx="314" cy="67" r="10.8333" stroke="url(#paint21_linear)" stroke-width="1.66667"/>
</g>
</g>
<defs>
<linearGradient id="paint0_linear" x1="207" y1="0" x2="207" y2="290" gradientUnits="userSpaceOnUse">
<stop stop-color="white"/>
<stop offset="1" stop-color="white" stop-opacity="0"/>
</linearGradient>
<linearGradient id="paint1_linear" x1="148" y1="18" x2="30" y2="18" gradientUnits="userSpaceOnUse">
<stop stop-color="#FFA992"/>
<stop offset="1" stop-color="#FD0D92"/>
</linearGradient>
<linearGradient id="paint2_linear" x1="118" y1="18" x2="-7.74418e-07" y2="18" gradientUnits="userSpaceOnUse">
<stop stop-color="#FFA992"/>
<stop offset="1" stop-color="#FD0D92"/>
</linearGradient>
<linearGradient id="paint3_linear" x1="384" y1="18" x2="266" y2="18" gradientUnits="userSpaceOnUse">
<stop stop-color="#FFA992"/>
<stop offset="1" stop-color="#FD0D92"/>
</linearGradient>
<linearGradient id="paint4_linear" x1="315.5" y1="262" x2="315.5" y2="284" gradientUnits="userSpaceOnUse">
<stop stop-color="#FFA992"/>
<stop offset="1" stop-color="#FD0D92"/>
</linearGradient>
<linearGradient id="paint5_linear" x1="48" y1="252" x2="48" y2="102" gradientUnits="userSpaceOnUse">
<stop stop-color="white" stop-opacity="0"/>
<stop offset="0.489583" stop-color="white" stop-opacity="0.87"/>
<stop offset="1" stop-color="white" stop-opacity="0"/>
</linearGradient>
<linearGradient id="paint6_linear" x1="101" y1="252" x2="101" y2="102" gradientUnits="userSpaceOnUse">
<stop stop-color="white" stop-opacity="0"/>
<stop offset="0.489583" stop-color="white" stop-opacity="0.87"/>
<stop offset="1" stop-color="white" stop-opacity="0"/>
</linearGradient>
<linearGradient id="paint7_linear" x1="154" y1="252" x2="154" y2="102" gradientUnits="userSpaceOnUse">
<stop stop-color="white" stop-opacity="0"/>
<stop offset="0.489583" stop-color="white" stop-opacity="0.87"/>
<stop offset="1" stop-color="white" stop-opacity="0"/>
</linearGradient>
<linearGradient id="paint8_linear" x1="207" y1="252" x2="207" y2="102" gradientUnits="userSpaceOnUse">
<stop stop-color="white" stop-opacity="0"/>
<stop offset="0.489583" stop-color="white" stop-opacity="0.87"/>
<stop offset="1" stop-color="white" stop-opacity="0"/>
</linearGradient>
<linearGradient id="paint9_linear" x1="260" y1="252" x2="260" y2="102" gradientUnits="userSpaceOnUse">
<stop stop-color="white" stop-opacity="0"/>
<stop offset="0.489583" stop-color="white" stop-opacity="0.87"/>
<stop offset="1" stop-color="white" stop-opacity="0"/>
</linearGradient>
<linearGradient id="paint10_linear" x1="313" y1="68" x2="313" y2="252" gradientUnits="userSpaceOnUse">
<stop stop-color="#FD0D63" stop-opacity="0"/>
<stop offset="0.507063" stop-color="#FD0D92" stop-opacity="0.5"/>
<stop offset="1" stop-color="#A5005B" stop-opacity="0"/>
</linearGradient>
<linearGradient id="paint11_linear" x1="366" y1="252" x2="366" y2="102" gradientUnits="userSpaceOnUse">
<stop stop-color="white" stop-opacity="0"/>
<stop offset="0.489583" stop-color="white" stop-opacity="0.87"/>
<stop offset="1" stop-color="white" stop-opacity="0"/>
</linearGradient>
<linearGradient id="paint12_linear" x1="207.5" y1="65.4988" x2="207.5" y2="226" gradientUnits="userSpaceOnUse">
<stop stop-color="#FFC9C9" stop-opacity="0.26"/>
<stop offset="0.369533" stop-color="#AD00FF" stop-opacity="0.46"/>
<stop offset="1" stop-color="#680DFD" stop-opacity="0.29"/>
</linearGradient>
<linearGradient id="paint13_linear" x1="207" y1="65.4988" x2="207" y2="252" gradientUnits="userSpaceOnUse">
<stop stop-color="#DB00FF" stop-opacity="0.22"/>
<stop offset="0.302447" stop-color="#00C2FF" stop-opacity="0.18"/>
<stop offset="0.488268" stop-color="#B454FF" stop-opacity="0.12"/>
<stop offset="0.671875" stop-color="white" stop-opacity="0.02"/>
<stop offset="0.817708" stop-color="#E1BAFF" stop-opacity="0"/>
<stop offset="1" stop-color="#B556FF" stop-opacity="0"/>
</linearGradient>
<linearGradient id="paint14_linear" x1="314" y1="42" x2="314" y2="92" gradientUnits="userSpaceOnUse">
<stop stop-color="#FFA992"/>
<stop offset="1" stop-color="#FD0D92"/>
</linearGradient>
<linearGradient id="paint15_linear" x1="314" y1="50.3333" x2="314" y2="83.6667" gradientUnits="userSpaceOnUse">
<stop stop-color="#FFA992"/>
<stop offset="1" stop-color="#FD0D92"/>
</linearGradient>
<linearGradient id="paint16_linear" x1="314" y1="58.6667" x2="314" y2="75.3333" gradientUnits="userSpaceOnUse">
<stop stop-color="#FFA992"/>
<stop offset="1" stop-color="#FD0D92"/>
</linearGradient>
<linearGradient id="paint17_linear" x1="314" y1="55.3333" x2="314" y2="78.6667" gradientUnits="userSpaceOnUse">
<stop stop-color="#FFA992"/>
<stop offset="1" stop-color="#FD0D92"/>
</linearGradient>
<linearGradient id="paint18_linear" x1="314" y1="42" x2="314" y2="92" gradientUnits="userSpaceOnUse">
<stop stop-color="#FFA992"/>
<stop offset="1" stop-color="#FD0D92"/>
</linearGradient>
<linearGradient id="paint19_linear" x1="314" y1="50.3333" x2="314" y2="83.6667" gradientUnits="userSpaceOnUse">
<stop stop-color="#FFA992"/>
<stop offset="1" stop-color="#FD0D92"/>
</linearGradient>
<linearGradient id="paint20_linear" x1="314" y1="58.6667" x2="314" y2="75.3333" gradientUnits="userSpaceOnUse">
<stop stop-color="#FFA992"/>
<stop offset="1" stop-color="#FD0D92"/>
</linearGradient>
<linearGradient id="paint21_linear" x1="314" y1="55.3333" x2="314" y2="78.6667" gradientUnits="userSpaceOnUse">
<stop stop-color="#FFA992"/>
<stop offset="1" stop-color="#FD0D92"/>
</linearGradient>
<clipPath id="clip0">
<rect width="414" height="290" fill="white"/>
</clipPath>
</defs>
</svg>
