<svg width="30" height="50" viewBox="0 0 30 50" fill="none" xmlns="http://www.w3.org/2000/svg">
<rect width="30" height="50" rx="10" fill="url(#paint0_linear)"/>
<line x1="7.5" y1="9.5" x2="22.5" y2="9.5" stroke="#FFBDDC" stroke-linecap="round"/>
<line x1="7.5" y1="14.5" x2="21.5" y2="14.5" stroke="#FFBDDC" stroke-linecap="round"/>
<line x1="7.5" y1="19.5" x2="19.5" y2="19.5" stroke="#FFBDDC" stroke-linecap="round"/>
<line x1="7.5" y1="24.5" x2="18.5" y2="24.5" stroke="#FFBDDC" stroke-linecap="round"/>
<line x1="7.5" y1="29.5" x2="16.5" y2="29.5" stroke="#FFBDDC" stroke-linecap="round"/>
<line x1="7.5" y1="34.5" x2="14.5" y2="34.5" stroke="#FFBDDC" stroke-linecap="round"/>
<line x1="7.5" y1="39.5" x2="12.5" y2="39.5" stroke="#FFBDDC" stroke-linecap="round"/>
<line x1="7.5" y1="9.5" x2="19.5" y2="9.5" stroke="url(#paint1_linear)" stroke-linecap="round"/>
<line x1="7.5" y1="14.5" x2="18.5" y2="14.5" stroke="url(#paint2_linear)" stroke-linecap="round"/>
<line x1="7.5" y1="19.5" x2="17.5" y2="19.5" stroke="url(#paint3_linear)" stroke-linecap="round"/>
<line x1="7.5" y1="24.5" x2="16.5" y2="24.5" stroke="url(#paint4_linear)" stroke-linecap="round"/>
<line x1="7.5" y1="29.5" x2="14.5" y2="29.5" stroke="url(#paint5_linear)" stroke-linecap="round"/>
<line x1="7.5" y1="34.5" x2="13.5" y2="34.5" stroke="url(#paint6_linear)" stroke-linecap="round"/>
<line x1="7.5" y1="39.5" x2="11.5" y2="39.5" stroke="url(#paint7_linear)" stroke-linecap="round"/>
<line x1="7.5" y1="9.5" x2="15.5" y2="9.5" stroke="url(#paint8_linear)" stroke-linecap="round"/>
<line x1="7.5" y1="14.5" x2="15.5" y2="14.5" stroke="url(#paint9_linear)" stroke-linecap="round"/>
<line x1="7.5" y1="19.5" x2="14.5" y2="19.5" stroke="url(#paint10_linear)" stroke-linecap="round"/>
<line x1="7.5" y1="24.5" x2="14.5" y2="24.5" stroke="url(#paint11_linear)" stroke-linecap="round"/>
<line x1="7.5" y1="29.5" x2="12.5" y2="29.5" stroke="url(#paint12_linear)" stroke-linecap="round"/>
<line x1="7.5" y1="34.5" x2="11.5" y2="34.5" stroke="url(#paint13_linear)" stroke-linecap="round"/>
<line x1="7.5" y1="39.5" x2="9.5" y2="39.5" stroke="url(#paint14_linear)" stroke-linecap="round"/>
<line x1="7.5" y1="9.5" x2="10.5" y2="9.5" stroke="url(#paint15_linear)" stroke-linecap="round"/>
<line x1="7.5" y1="14.5" x2="10.5" y2="14.5" stroke="url(#paint16_linear)" stroke-linecap="round"/>
<line x1="7.5" y1="19.5" x2="9.5" y2="19.5" stroke="url(#paint17_linear)" stroke-linecap="round"/>
<line x1="7.5" y1="24.5" x2="9.5" y2="24.5" stroke="url(#paint18_linear)" stroke-linecap="round"/>
<line x1="7.5" y1="29.5" x2="9.5" y2="29.5" stroke="url(#paint19_linear)" stroke-linecap="round"/>
<line x1="7.5" y1="34.5" x2="8.5" y2="34.5" stroke="url(#paint20_linear)" stroke-linecap="round"/>
<defs>
<linearGradient id="paint0_linear" x1="15" y1="0" x2="15" y2="50" gradientUnits="userSpaceOnUse">
<stop stop-color="#F8758E" stop-opacity="0.3"/>
<stop offset="1" stop-color="#EB62BC" stop-opacity="0.3"/>
</linearGradient>
<linearGradient id="paint1_linear" x1="13.5" y1="10" x2="13.5" y2="11" gradientUnits="userSpaceOnUse">
<stop stop-color="#DE5494"/>
<stop offset="1" stop-color="#CF4485"/>
</linearGradient>
<linearGradient id="paint2_linear" x1="13" y1="15" x2="13" y2="16" gradientUnits="userSpaceOnUse">
<stop stop-color="#DE5494"/>
<stop offset="1" stop-color="#CF4485"/>
</linearGradient>
<linearGradient id="paint3_linear" x1="12.5" y1="20" x2="12.5" y2="21" gradientUnits="userSpaceOnUse">
<stop stop-color="#DE5494"/>
<stop offset="1" stop-color="#CF4485"/>
</linearGradient>
<linearGradient id="paint4_linear" x1="12" y1="25" x2="12" y2="26" gradientUnits="userSpaceOnUse">
<stop stop-color="#DE5494"/>
<stop offset="1" stop-color="#CF4485"/>
</linearGradient>
<linearGradient id="paint5_linear" x1="11" y1="30" x2="11" y2="31" gradientUnits="userSpaceOnUse">
<stop stop-color="#DE5494"/>
<stop offset="1" stop-color="#CF4485"/>
</linearGradient>
<linearGradient id="paint6_linear" x1="10.5" y1="35" x2="10.5" y2="36" gradientUnits="userSpaceOnUse">
<stop stop-color="#DE5494"/>
<stop offset="1" stop-color="#CF4485"/>
</linearGradient>
<linearGradient id="paint7_linear" x1="9.5" y1="40" x2="9.5" y2="41" gradientUnits="userSpaceOnUse">
<stop stop-color="#DE5494"/>
<stop offset="1" stop-color="#CF4485"/>
</linearGradient>
<linearGradient id="paint8_linear" x1="11.5" y1="10" x2="11.5" y2="11" gradientUnits="userSpaceOnUse">
<stop stop-color="#C4006C"/>
<stop offset="1" stop-color="#FD0D92"/>
</linearGradient>
<linearGradient id="paint9_linear" x1="11.5" y1="15" x2="11.5" y2="16" gradientUnits="userSpaceOnUse">
<stop stop-color="#C4006C"/>
<stop offset="1" stop-color="#FD0D92"/>
</linearGradient>
<linearGradient id="paint10_linear" x1="11" y1="20" x2="11" y2="21" gradientUnits="userSpaceOnUse">
<stop stop-color="#C4006C"/>
<stop offset="1" stop-color="#FD0D92"/>
</linearGradient>
<linearGradient id="paint11_linear" x1="11" y1="25" x2="11" y2="26" gradientUnits="userSpaceOnUse">
<stop stop-color="#C4006C"/>
<stop offset="1" stop-color="#FD0D92"/>
</linearGradient>
<linearGradient id="paint12_linear" x1="10" y1="30" x2="10" y2="31" gradientUnits="userSpaceOnUse">
<stop stop-color="#C4006C"/>
<stop offset="1" stop-color="#FD0D92"/>
</linearGradient>
<linearGradient id="paint13_linear" x1="9.5" y1="35" x2="9.5" y2="36" gradientUnits="userSpaceOnUse">
<stop stop-color="#C4006C"/>
<stop offset="1" stop-color="#FD0D92"/>
</linearGradient>
<linearGradient id="paint14_linear" x1="8.5" y1="40" x2="8.5" y2="41" gradientUnits="userSpaceOnUse">
<stop stop-color="#C4006C"/>
<stop offset="1" stop-color="#FD0D92"/>
</linearGradient>
<linearGradient id="paint15_linear" x1="9" y1="10" x2="9" y2="11" gradientUnits="userSpaceOnUse">
<stop stop-color="#FF008D"/>
<stop offset="1" stop-color="#FD0D92"/>
</linearGradient>
<linearGradient id="paint16_linear" x1="9" y1="15" x2="9" y2="16" gradientUnits="userSpaceOnUse">
<stop stop-color="#FF008D"/>
<stop offset="1" stop-color="#FD0D92"/>
</linearGradient>
<linearGradient id="paint17_linear" x1="8.5" y1="20" x2="8.5" y2="21" gradientUnits="userSpaceOnUse">
<stop stop-color="#FF008D"/>
<stop offset="1" stop-color="#FD0D92"/>
</linearGradient>
<linearGradient id="paint18_linear" x1="8.5" y1="25" x2="8.5" y2="26" gradientUnits="userSpaceOnUse">
<stop stop-color="#FF008D"/>
<stop offset="1" stop-color="#FD0D92"/>
</linearGradient>
<linearGradient id="paint19_linear" x1="8.5" y1="30" x2="8.5" y2="31" gradientUnits="userSpaceOnUse">
<stop stop-color="#FF008D"/>
<stop offset="1" stop-color="#FD0D92"/>
</linearGradient>
<linearGradient id="paint20_linear" x1="8" y1="35" x2="8" y2="36" gradientUnits="userSpaceOnUse">
<stop stop-color="#FF008D"/>
<stop offset="1" stop-color="#FD0D92"/>
</linearGradient>
</defs>
</svg>
