<svg width="414" height="100" viewBox="0 0 414 100" fill="none" xmlns="http://www.w3.org/2000/svg">
<path d="M0 50C0 22.3858 22.3858 0 50 0H364C391.614 0 414 22.3858 414 50V100H0V50Z" fill="#373856"/>
<path fill-rule="evenodd" clip-rule="evenodd" d="M376.8 43.5969C376.8 46.2463 374.651 48.3937 372 48.3937C369.349 48.3937 367.2 46.2463 367.2 43.5969C367.2 40.9474 369.349 38.8 372 38.8C374.651 38.8 376.8 40.9474 376.8 43.5969Z" stroke="white" stroke-width="1.6" stroke-linecap="square"/>
<path fill-rule="evenodd" clip-rule="evenodd" d="M380 61.1854H364C364 60.0493 364 58.9685 364 57.9898C364 55.3388 366.149 53.1906 368.8 53.1906H375.2C377.851 53.1906 380 55.3388 380 57.9898C380 58.9685 380 60.0493 380 61.1854Z" stroke="white" stroke-width="1.6" stroke-linecap="square"/>
<path d="M38.8 38.8H32.4C31.5164 38.8 30.8 39.5163 30.8 40.4V46.8C30.8 47.6836 31.5164 48.4 32.4 48.4H38.8C39.6837 48.4 40.4 47.6836 40.4 46.8V40.4C40.4 39.5163 39.6837 38.8 38.8 38.8Z" stroke="white" stroke-width="1.6"/>
<path d="M51.6 38.8H45.2C44.3164 38.8 43.6 39.5163 43.6 40.4V46.8C43.6 47.6836 44.3164 48.4 45.2 48.4H51.6C52.4837 48.4 53.2 47.6836 53.2 46.8V40.4C53.2 39.5163 52.4837 38.8 51.6 38.8Z" stroke="white" stroke-width="1.6"/>
<path d="M51.6 51.6H45.2C44.3164 51.6 43.6 52.3163 43.6 53.2V59.6C43.6 60.4836 44.3164 61.2 45.2 61.2H51.6C52.4837 61.2 53.2 60.4836 53.2 59.6V53.2C53.2 52.3163 52.4837 51.6 51.6 51.6Z" stroke="white" stroke-width="1.6"/>
<path d="M38.8 51.6H32.4C31.5164 51.6 30.8 52.3163 30.8 53.2V59.6C30.8 60.4836 31.5164 61.2 32.4 61.2H38.8C39.6837 61.2 40.4 60.4836 40.4 59.6V53.2C40.4 52.3163 39.6837 51.6 38.8 51.6Z" stroke="white" stroke-width="1.6"/>
<path d="M94.8 61.2H94V62H94.8V61.2ZM97.2 56.4V57.2H98.8V56.4H97.2ZM118 42V41.2H116.4V42H118ZM94 38V61.2H95.6V38H94ZM94.8 62H118V60.4H94.8V62ZM98.8 56.4C98.8 54.0729 99.1901 51.7922 99.9311 50.1249C100.684 48.4305 101.677 47.6 102.8 47.6V46C100.723 46 99.3159 47.5695 98.469 49.4751C97.61 51.4078 97.2 53.9271 97.2 56.4H98.8ZM102.8 47.6C103.313 47.6 103.827 47.8522 104.407 48.3878C104.993 48.9287 105.549 49.6648 106.16 50.48C106.749 51.2648 107.393 52.1287 108.107 52.7878C108.827 53.4522 109.713 54 110.8 54V52.4C110.287 52.4 109.773 52.1478 109.193 51.6122C108.607 51.0713 108.051 50.3352 107.44 49.52C106.851 48.7352 106.207 47.8713 105.493 47.2122C104.773 46.5478 103.887 46 102.8 46V47.6ZM110.8 54C112.757 54 114.58 52.7796 115.876 50.7272C117.176 48.6688 118 45.7106 118 42H116.4C116.4 45.4894 115.624 48.1312 114.524 49.8728C113.42 51.6204 112.043 52.4 110.8 52.4V54Z" fill="white"/>
<g clip-path="url(#clip0)">
<path d="M320 45.5928H317.513V43.3674H314.196V49.5637H301.804V43.3674H298.487V45.5928H296V54.4074H298.487V56.6328H301.804V50.4365H314.196V56.6328H317.513V54.4074H320V45.5928ZM296.873 53.5346V46.4656H298.487V53.5346H296.873ZM300.931 55.8037H299.316V44.1965H300.931V55.8037ZM316.684 55.8037H315.069V44.1965H316.684V55.8037ZM319.127 53.5346H317.513V46.4656H319.127V53.5346Z" fill="white"/>
</g>
<rect x="177" y="20" width="60" height="60" rx="30" fill="url(#paint0_linear)"/>
<path d="M207 39.6V60.4M196.6 50H217.4" stroke="white" stroke-width="1.6"/>
<defs>
<linearGradient id="paint0_linear" x1="207" y1="20" x2="207" y2="80" gradientUnits="userSpaceOnUse">
<stop stop-color="#F1A3B2"/>
<stop offset="1" stop-color="#EB62BC"/>
</linearGradient>
<clipPath id="clip0">
<rect width="24" height="24" fill="white" transform="translate(296 38)"/>
</clipPath>
</defs>
</svg>
