<svg width="300" height="170" viewBox="0 0 300 170" fill="none" xmlns="http://www.w3.org/2000/svg">
<path d="M0 20C0 8.9543 8.95431 0 20 0H280C291.046 0 300 8.95431 300 20V150C300 161.046 291.046 170 280 170H20C8.9543 170 0 161.046 0 150V20Z" fill="url(#paint0_linear)" fill-opacity="0.99"/>
<g clip-path="url(#clip0)">
<path opacity="0.6" d="M270.466 78.5962C262.329 59.1669 246.404 42.5921 227.167 39.8906C222.08 39.1764 216.769 39.4628 212.05 41.6755C205.855 44.58 201.29 50.4427 196.675 55.8509C186.905 67.2984 175.972 77.4646 164.092 86.1481C158.229 90.4327 151.94 94.4303 144.979 95.5265C131.021 97.7245 117.215 87.2188 110.85 73.3335C106.873 64.6597 105.036 54.4759 101.822 45.454C98.1196 45.4462 93.709 45.4477 88.9638 45.4718C75.8477 45.5385 65.1717 45.7524 65.1717 45.7524C65.1717 45.7524 77.8618 27.1991 88.9162 34.0729C92.4489 36.2696 96.149 38.2299 99.5494 39.8812C97.6177 35.7797 95.1809 32.0894 91.8288 29.1223C85.2188 23.2717 76.2664 21.6306 67.8029 22.0663C58.9155 22.5238 49.9464 25.1501 42.7247 30.8858C29.8597 41.1036 24.547 59.0887 20 75.8472L30.9907 81.9287C35.705 77.4301 42.5987 72.9801 48.9528 76.9312C60.0073 83.8051 72.706 88.3691 72.706 88.3691C72.706 88.3691 62.1166 88.2634 49.0004 88.3301C46.7975 88.3413 44.6661 88.3567 42.6399 88.3745L164.663 155.893C204.91 156.519 235.256 154.116 273.499 155.893C275.494 155.986 279.98 144.446 279.995 141.409C280.1 120.004 278.604 98.0256 270.466 78.5962ZM231.387 84.4196C218.271 84.4864 207.595 84.7003 207.595 84.7003C207.595 84.7003 220.285 66.1469 231.339 73.0208C242.394 79.8947 255.092 84.4586 255.092 84.4586C255.092 84.4586 244.503 84.3529 231.387 84.4197L231.387 84.4196Z" fill="url(#paint1_linear)"/>
<path d="M280 147.004C280 139.261 276.071 132.983 271.223 132.983C268.177 132.983 265.494 135.464 263.92 139.229C263.388 139.008 262.818 138.894 262.243 138.893C260.776 138.893 259.419 139.644 258.313 140.917C256.894 136.222 253.886 132.983 250.405 132.983C247.149 132.983 244.31 135.817 242.795 140.022C241.953 139.312 240.892 138.913 239.791 138.893C236.071 138.893 233.056 143.71 233.056 149.653C233.04 151.634 233.4 153.6 234.117 155.447H278.23C279.341 153.099 280 150.175 280 147.004Z" fill="#FD0D92"/>
<path opacity="0.3" d="M244.37 119.381C244.37 113.751 240.884 109.186 236.584 109.186C233.881 109.186 231.501 110.99 230.105 113.728C229.625 113.566 229.123 113.483 228.617 113.483C227.308 113.505 226.059 114.032 225.13 114.955C223.871 111.541 221.203 109.186 218.114 109.186C215.226 109.186 212.707 111.246 211.363 114.304C210.574 113.775 209.648 113.489 208.698 113.483C205.398 113.483 202.722 116.986 202.722 121.307C202.713 122.765 203.035 124.205 203.664 125.52H242.8C243.85 123.645 244.391 121.529 244.37 119.381Z" fill="#FD0D92"/>
<path d="M280 155.853H39.7407V155.372H279.759L280 155.853Z" fill="#2F2E41"/>
<path d="M260.259 126.002H20V125.52H260.019L260.259 126.002Z" fill="#2F2E41"/>
<path d="M121.985 81.6811C121.985 81.6811 123.498 70.5845 126.02 73.6108C128.542 76.6372 126.02 81.1767 126.02 81.1767L124.003 83.6986L121.985 82.1854V81.6811Z" fill="#FFB8B8"/>
<path d="M115.932 85.2118C115.932 85.2118 120.976 79.6635 121.985 80.6723C122.994 81.681 126.02 82.1854 125.516 84.203C125.011 86.2206 114.419 92.7776 114.419 92.7776L115.932 85.2118Z" fill="#FD0D92"/>
<path opacity="0.1" d="M115.932 85.2118C115.932 85.2118 120.976 79.6635 121.985 80.6723C122.994 81.681 126.02 82.1854 125.516 84.203C125.011 86.2206 114.419 92.7776 114.419 92.7776L115.932 85.2118Z" fill="black"/>
<path d="M87.1819 84.7074V88.7425C87.1819 88.7425 86.6775 97.8215 89.7039 97.3171C92.7302 96.8127 91.217 89.2469 91.217 89.2469L90.7126 84.7074H87.1819Z" fill="#FFB8B8"/>
<path d="M88.6952 113.962C88.6952 113.962 84.1557 121.023 82.6425 121.528C81.1294 122.032 73.0591 126.572 72.0504 131.111L64.9889 140.19L68.5196 144.73C68.5196 144.73 84.6601 127.581 89.1996 126.067C93.7391 124.554 98.2786 116.988 98.2786 116.988L88.6952 113.962Z" fill="#FFB8B8"/>
<path d="M124.507 102.361C124.507 102.361 134.09 103.874 132.577 109.927C131.064 115.98 116.437 128.589 116.437 128.589L115.932 131.616L110.384 132.624L107.862 130.103L108.366 128.589C108.366 128.589 114.419 123.041 114.923 121.023C115.428 119.006 120.976 110.936 123.498 110.431L119.967 108.414L124.507 102.361Z" fill="#FFB8B8"/>
<path d="M66.502 140.19C66.502 140.19 68.5196 137.164 65.4932 137.668C62.4669 138.173 60.4493 138.677 60.4493 140.695C60.4493 142.712 62.9713 156.835 65.9976 155.826C69.024 154.818 66.502 150.278 66.502 150.278C66.502 150.278 68.0152 146.243 69.024 145.739C70.0328 145.234 70.0328 142.712 69.024 142.712C68.0152 142.712 65.9976 141.199 66.502 140.19Z" fill="#2F2E41"/>
<path d="M109.375 129.094C109.375 129.094 109.375 126.572 107.358 129.094C105.34 131.616 104.331 133.633 106.349 135.146C108.366 136.66 115.428 140.19 115.428 140.19C115.428 140.19 122.994 141.703 121.985 138.173C121.985 138.173 116.941 135.651 116.941 133.633C116.941 131.616 116.941 128.085 115.428 129.094C113.915 130.103 109.375 130.607 109.375 129.094Z" fill="#2F2E41"/>
<path d="M99.7917 91.2645C99.7917 91.2645 92.7302 92.2732 93.2346 102.361C93.2346 102.361 84.1556 111.44 86.6776 114.466C89.1995 117.493 94.7478 123.041 96.7654 121.528C98.7829 120.015 104.836 108.414 104.836 108.414C104.836 108.414 118.959 113.458 121.48 110.936C124.002 108.414 126.524 102.361 126.524 102.361L113.915 95.804L99.7917 91.2645Z" fill="#2F2E41"/>
<path d="M119.463 62.5142C122.806 62.5142 125.516 59.8043 125.516 56.4615C125.516 53.1187 122.806 50.4089 119.463 50.4089C116.12 50.4089 113.41 53.1187 113.41 56.4615C113.41 59.8043 116.12 62.5142 119.463 62.5142Z" fill="#FFB8B8"/>
<path d="M114.923 56.9659C114.923 56.9659 111.393 62.5142 110.384 63.0186C109.375 63.523 117.445 68.5669 117.445 68.5669C117.445 68.5669 117.445 62.0098 119.967 60.4967L114.923 56.9659Z" fill="#FFB8B8"/>
<path d="M114.419 62.5142C114.419 62.5142 106.349 59.9923 104.836 64.0274C103.323 68.0625 99.7918 75.6284 100.296 80.6723C100.801 85.7162 101.809 84.7074 100.296 86.2206C98.7831 87.7337 97.7743 86.725 98.2787 88.7425C98.7831 90.7601 99.2874 90.7601 98.7831 91.7689C98.2787 92.7777 104.836 96.3084 110.384 96.8128L115.932 97.3172C115.932 97.3172 115.932 88.2381 116.941 86.2206C117.95 84.203 119.967 80.1679 119.967 78.6547V74.651C119.967 71.9862 119.272 69.3675 117.95 67.0537C117.95 67.0537 114.924 62.5142 114.419 62.5142Z" fill="#FD0D92"/>
<path d="M108.366 64.5318C108.366 64.5318 89.7038 66.045 87.6863 71.0889C85.6687 76.1328 84.6599 86.2206 86.6775 86.2206C88.6951 86.2206 91.217 87.2294 91.7214 86.2206C92.2258 85.2118 94.2433 75.124 94.7477 75.124C95.2521 75.124 110.384 73.6108 110.384 73.6108C110.384 73.6108 116.941 65.5406 108.366 64.5318Z" fill="#FD0D92"/>
<path d="M119.706 54.961C119.706 54.961 121.312 52.1697 123.32 54.5942C125.328 57.0187 128.594 52.5633 128.093 51.6126C127.591 50.6619 125.821 51.6553 122.786 50.6634C119.752 49.6714 113.907 47.6506 112.928 54.2425C111.949 60.8344 114.28 60.1434 114.28 60.1434C114.28 60.1434 115.349 54.3022 116.315 55.9801L117.281 57.6579L118.118 57.8641L119.706 54.961Z" fill="#2F2E41"/>
<path d="M176.797 39.5156C180.875 39.5156 184.181 36.2094 184.181 32.1311C184.181 28.0527 180.875 24.7465 176.797 24.7465C172.718 24.7465 169.412 28.0527 169.412 32.1311C169.412 36.2094 172.718 39.5156 176.797 39.5156Z" fill="#2F2E41"/>
<path d="M174.436 37.597C174.436 37.597 174.818 44.4754 174.054 44.4754C173.29 44.4754 178.831 47.7236 178.831 47.7236L182.27 45.8129V43.5201C182.27 43.5201 177.684 42.9469 179.595 37.9791C181.506 33.0113 174.436 37.597 174.436 37.597Z" fill="#9F616A"/>
<path d="M158.386 113.069L157.813 118.801L159.724 119.374L161.252 117.846L161.825 113.069H158.386Z" fill="#9F616A"/>
<path d="M185.9 116.317L186.856 119.947L189.53 121.667L192.397 120.139L189.148 114.789L185.9 116.317Z" fill="#9F616A"/>
<path d="M176.251 40.5585C179.312 40.5585 181.792 38.0777 181.792 35.0175C181.792 31.9573 179.312 29.4765 176.251 29.4765C173.191 29.4765 170.71 31.9573 170.71 35.0175C170.71 38.0777 173.191 40.5585 176.251 40.5585Z" fill="#9F616A"/>
<path d="M172.907 55.7485L171.57 55.1753C171.57 55.1753 169.277 53.8378 169.086 51.1628C168.895 48.4879 170.997 45.0486 170.997 45.0486L174.054 44.0933L177.646 47.0167L177.684 51.736L172.907 55.7485Z" fill="#9F616A"/>
<path d="M171.57 45.4308L170.806 45.0486C170.806 45.0486 166.984 44.8576 166.602 49.4432C166.22 54.0288 164.883 61.6716 164.883 61.6716C164.883 61.6716 161.825 67.0215 162.017 72.7535L160.488 77.7213C160.488 77.7213 158.386 84.9819 160.87 84.9819C163.354 84.9819 163.163 77.1481 163.163 77.1481C163.163 77.1481 167.749 66.0661 168.131 64.1555C168.513 62.2448 171.761 53.2646 170.806 50.7807C169.85 48.2968 171.57 45.4308 171.57 45.4308Z" fill="#9F616A"/>
<path d="M174.436 57.4681V59.5698C174.436 59.5698 175.774 61.0984 175.2 62.0537C174.627 63.009 174.054 64.9197 174.054 64.9197L176.729 69.1232L185.709 69.8875L187.495 57.9228L174.436 57.4681Z" fill="#9F616A"/>
<path d="M182.843 44.0933L184.372 43.329C184.372 43.329 187.62 41.0362 190.295 40.6541L198.511 35.1131L203.861 22.3115C203.861 22.3115 203.67 15.433 205.198 16.1973C206.727 16.9616 206.536 22.8847 206.536 22.8847C206.536 22.8847 203.67 34.7309 201.186 37.9791C198.702 41.2273 189.722 46.5772 189.722 46.5772C189.722 46.5772 187.238 49.4432 187.429 50.7807C187.62 52.1182 182.843 44.0933 182.843 44.0933Z" fill="#9F616A"/>
<path d="M175.774 64.9197C175.774 64.9197 173.672 63.5823 172.334 65.8751C170.997 68.1679 168.513 68.7411 166.984 75.6196C165.456 82.498 161.826 93.3889 160.87 94.1532C159.915 94.9175 155.902 102.942 158.195 114.215H162.017L165.265 97.9746C165.265 97.9746 175.774 84.9819 176.538 79.632L179.977 99.6942C179.977 99.6942 180.168 107.337 183.034 110.967L186.091 118.228L190.104 116.317L185.518 97.9746C185.518 97.9746 187.811 79.4409 186.282 74.2821L186.063 67.5187C186.063 67.5187 179.786 67.7858 175.774 64.9197Z" fill="#2F2E41"/>
<path d="M159.724 117.846H157.431C157.049 117.846 153.992 120.33 155.329 121.667C156.667 123.005 158.768 125.488 158.768 125.488C158.768 125.488 166.22 126.436 166.411 125.099C166.602 123.761 163.163 120.903 163.163 120.903L162.208 117.846C162.208 117.846 160.297 115.744 159.724 117.846Z" fill="#2F2E41"/>
<path d="M190.104 119.756C190.104 119.756 186.855 119.565 186.282 119.374C185.709 119.183 184.563 124.342 186.282 124.724C188.002 125.106 195.071 125.679 195.071 125.679C195.071 125.679 200.612 125.488 200.23 123.96C199.848 122.431 192.396 119.374 192.396 119.374C192.396 119.374 191.441 117.464 190.104 119.756Z" fill="#2F2E41"/>
<path d="M175.009 43.9022L174.054 43.329L172.908 44.2843C172.908 44.2843 176.347 46.5772 175.583 48.6789C174.818 50.7807 171.57 55.1752 171.57 55.1752C171.57 55.1752 174.436 58.4234 174.436 59.5698C174.436 59.5698 181.888 56.8949 187.429 59.5698C187.429 59.5698 187.429 55.7485 188.193 54.9842C188.957 54.2199 189.339 51.545 187.429 49.2521C186.083 47.565 184.869 45.7764 183.798 43.9022L181.888 42.7558L180.904 43.068C180.904 43.068 182.843 45.2397 180.932 45.4308C179.022 45.6219 175.965 45.0486 175.009 43.9022Z" fill="#FD0D92"/>
<path d="M182.194 19.541C181.544 20.2656 180.655 20.7313 179.69 20.8524C178.021 21.0909 179.332 23.7138 179.332 23.7138C179.332 23.7138 178.855 22.76 179.809 21.9255C180.763 21.0909 182.194 20.614 182.194 19.541Z" fill="#2F2E41"/>
<path d="M178.976 26.3203C180.112 26.3203 181.034 25.3989 181.034 24.2623C181.034 23.1257 180.112 22.2043 178.976 22.2043C177.839 22.2043 176.918 23.1257 176.918 24.2623C176.918 25.3989 177.839 26.3203 178.976 26.3203Z" fill="#2F2E41"/>
<path d="M181.378 26.2887C179.788 25.4583 177.053 24.8051 175.6 24.8518L175.968 23.4464C177.254 24.3204 179.975 24.9858 181.746 24.8833L181.378 26.2887Z" fill="#FD0D92"/>
<path d="M178.094 26.4124C178.094 26.4124 175.588 29.6336 170.577 30.3494C165.567 31.0652 169.504 38.9392 169.504 38.9392C169.504 38.9392 168.072 36.076 170.935 33.5706C173.799 31.0652 178.094 29.6336 178.094 26.4124Z" fill="#2F2E41"/>
<path d="M178.285 26.2214C178.285 26.2214 179.716 31.2321 181.864 31.9479C184.011 32.6637 182.937 40.1798 179.358 40.8956C179.358 40.8956 182.401 36.7797 180.611 33.5585C178.822 30.3373 177.748 27.8319 178.285 26.2214Z" fill="#2F2E41"/>
<path d="M211.981 17.8214H198.797V19.3499H211.981V17.8214Z" fill="#2F2E41"/>
<path d="M211.981 23.1713C212.614 23.1713 213.127 21.1182 213.127 18.5856C213.127 16.0531 212.614 14 211.981 14C211.348 14 210.834 16.0531 210.834 18.5856C210.834 21.1182 211.348 23.1713 211.981 23.1713Z" fill="#2F2E41"/>
<path d="M198.797 23.1713C199.43 23.1713 199.944 21.1182 199.944 18.5856C199.944 16.0531 199.43 14 198.797 14C198.164 14 197.651 16.0531 197.651 18.5856C197.651 21.1182 198.164 23.1713 198.797 23.1713Z" fill="#2F2E41"/>
<path d="M218.668 120.62H205.485V122.148H218.668V120.62Z" fill="#2F2E41"/>
<path d="M218.668 125.97C219.302 125.97 219.815 123.917 219.815 121.384C219.815 118.852 219.302 116.798 218.668 116.798C218.035 116.798 217.522 118.852 217.522 121.384C217.522 123.917 218.035 125.97 218.668 125.97Z" fill="#2F2E41"/>
<path d="M205.485 125.97C206.118 125.97 206.631 123.917 206.631 121.384C206.631 118.852 206.118 116.798 205.485 116.798C204.852 116.798 204.338 118.852 204.338 121.384C204.338 123.917 204.852 125.97 205.485 125.97Z" fill="#2F2E41"/>
<path opacity="0.3" d="M66.7038 119.381C66.7038 113.751 63.2177 109.186 58.9174 109.186C56.2145 109.186 53.8341 110.99 52.4379 113.728C51.9585 113.566 51.4559 113.483 50.9499 113.483C49.6413 113.505 48.392 114.032 47.4634 114.955C46.2049 111.541 43.5362 109.186 40.4473 109.186C37.5593 109.186 35.0403 111.246 33.6961 114.304C32.9076 113.775 31.9809 113.489 31.0312 113.483C27.731 113.483 25.0556 116.986 25.0556 121.307C25.046 122.765 25.3679 124.205 25.9971 125.52H65.1335C66.1829 123.645 66.7242 121.529 66.7038 119.381Z" fill="#FD0D92"/>
</g>
<defs>
<linearGradient id="paint0_linear" x1="150" y1="0" x2="150" y2="170" gradientUnits="userSpaceOnUse">
<stop stop-color="white"/>
<stop offset="1" stop-color="#F4F4F4"/>
</linearGradient>
<linearGradient id="paint1_linear" x1="150" y1="22" x2="150" y2="156" gradientUnits="userSpaceOnUse">
<stop stop-color="#0BB839"/>
<stop offset="1" stop-color="#058527"/>
</linearGradient>
<clipPath id="clip0">
<rect width="260" height="141.878" fill="white" transform="translate(20 14)"/>
</clipPath>
</defs>
</svg>
